<svg id="visual" viewBox="0 0 900 600" width="900" height="600" xmlns="http://www.w3.org/2000/svg" xmlns:xlink="http://www.w3.org/1999/xlink" version="1.1"><rect width="900" height="600" fill="#fff"></rect><g><g transform="translate(342 171)"><path d="M107 -30.3C121 8.3 102.5 61.9 67.1 86.2C31.7 110.4 -20.6 105.3 -55.2 79.3C-89.9 53.4 -106.9 6.5 -94.8 -29.5C-82.7 -65.6 -41.3 -90.8 2.6 -91.7C46.5 -92.5 93 -68.9 107 -30.3Z" stroke="#F7760E" fill="none" stroke-width="20"></path></g><g transform="translate(771 372)"><path d="M92.8 -26.9C105.1 7.8 89.5 54.8 57.9 77.2C26.2 99.6 -21.5 97.4 -51.4 74.7C-81.4 52 -93.5 8.9 -82 -24.7C-70.5 -58.3 -35.2 -82.2 2.5 -83C40.2 -83.8 80.5 -61.5 92.8 -26.9Z" stroke="#F7760E" fill="none" stroke-width="20"></path></g><g transform="translate(751 45)"><path d="M70.2 -22.5C80.6 9.2 71.5 47.5 46.5 66.2C21.5 84.9 -19.5 84 -43.3 65.3C-67.2 46.7 -74 10.2 -63.9 -21.1C-53.9 -52.4 -26.9 -78.5 1.5 -79C29.9 -79.5 59.8 -54.3 70.2 -22.5Z" stroke="#F7760E" fill="none" stroke-width="20"></path></g></g></svg>